<svg width="311" height="138" viewBox="0 0 311 138" fill="rgb(250, 204, 21)" xmlns="http://www.w3.org/2000/svg">
<path d="M7.85492 6.27525H34.9591C47.9435 6.27525 59.0476 10.7128 68.2716 19.5878C77.4903 28.4628 82.1049 39.5878 82.1049 52.9628C82.1049 66.4211 77.5112 77.5878 68.3341 86.4628C59.1518 95.3378 48.0268 99.7753 34.9591 99.7753H7.85492V6.27525ZM29.1674 80.7336H32.4591C40.2351 80.7336 46.5945 78.1086 51.5424 72.8586C56.5008 67.6086 59.0112 61.02 59.0841 53.0878C59.0841 45.1607 56.6101 38.5461 51.6674 33.2544C46.7195 27.9628 40.3185 25.3169 32.4591 25.3169H29.1674V80.7336Z" fill="rgb(250, 204, 21)"/>
<path d="M112.349 33.2544L95.5777 25.0878C95.7287 24.5617 95.9527 23.8273 96.2443 22.8794C96.5464 21.9367 97.4579 20.2961 98.9735 17.9628C100.484 15.619 102.265 13.5409 104.307 11.7336C106.349 9.91588 109.333 8.27005 113.265 6.79609C117.192 5.31172 121.609 4.56693 126.515 4.56693C135.432 4.56693 142.776 7.12422 148.557 12.2336C154.333 17.3326 157.224 23.8482 157.224 31.7753C157.224 39.1815 154.463 45.0357 148.953 49.3378C156.895 54.1711 160.869 61.3117 160.869 70.7544C160.869 79.6711 157.599 87.0253 151.057 92.8169C144.515 98.5982 136.224 101.484 126.182 101.484C120.817 101.484 115.942 100.692 111.557 99.1086C107.182 97.5148 103.765 95.6034 101.307 93.3794C98.8485 91.1451 96.8068 88.8951 95.1818 86.6294C93.5568 84.369 92.4423 82.4419 91.8485 80.8586L91.036 78.4628L110.765 68.8378C110.765 69.2128 110.817 69.7284 110.932 70.3794C111.041 71.0201 111.437 72.1711 112.119 73.8378C112.796 75.494 113.63 76.9419 114.619 78.1919C115.604 79.4315 117.099 80.5617 119.099 81.5878C121.099 82.6034 123.416 83.1086 126.057 83.1086C130.067 83.1086 133.317 82.0201 135.807 79.8378C138.307 77.6451 139.557 74.619 139.557 70.7544C139.557 66.7544 138.25 63.4732 135.64 60.9003C133.026 58.3326 129.833 57.0461 126.057 57.0461L121.994 57.7336V43.7961H126.64C129.583 43.7961 132.187 42.6659 134.453 40.4003C136.713 38.1242 137.849 35.3273 137.849 32.0044C137.849 29.0617 136.692 26.6086 134.39 24.6503C132.083 22.6815 129.38 21.6919 126.286 21.6919C124.104 21.6919 122.125 22.0878 120.349 22.8794C118.567 23.6711 117.208 24.6398 116.265 25.7753C115.317 26.9003 114.52 28.0357 113.869 29.1711C113.229 30.2961 112.838 31.244 112.703 32.0044L112.349 33.2544Z" fill="rgb(250, 204, 21)"/>
<mask id="mask0_1_59" style="mask-type:luminance" maskUnits="userSpaceOnUse" x="249" y="65" width="56" height="67">
<path d="M249.156 65.974H304.781V131.505H249.156V65.974Z" fill="rgb(250, 204, 21)"/>
</mask>
<g mask="url(#mask0_1_59)">
<path d="M258.865 68.5885C259.51 68.1563 260.177 67.7396 260.88 67.3698L265.307 76.1146C264.604 76.5052 263.948 76.9531 263.349 77.4583H263.354C260.281 80.0417 258.687 83.9635 259.005 87.8958C259.13 89.4323 259.547 90.974 260.286 92.4375C260.286 92.4375 260.286 92.4375 260.292 92.4427L271.693 114.958C274.755 121.016 282.177 123.448 288.234 120.38C294.292 117.318 296.724 109.896 293.656 103.839L282.255 81.3177C282.255 81.3177 282.255 81.3177 282.25 81.3125C283.005 77.8698 282.625 74.1563 280.911 70.776L278.495 66C283.729 67.8125 288.302 71.5729 290.995 76.8958L302.396 99.4115C307.906 110.286 303.536 123.62 292.661 129.125C281.786 134.63 268.458 130.26 262.948 119.385L251.547 96.8698C248.854 91.5469 248.526 85.6354 250.167 80.3438C250.594 78.9792 251.146 77.651 251.828 76.3854C253.474 73.3229 255.849 70.6302 258.859 68.5885H258.865Z" fill="rgb(250, 204, 21)"/>
</g>
<path d="M268.005 52.5156L272.578 61.5521L274.323 64.9948L277.995 72.25C278.865 73.9635 279.302 75.7865 279.349 77.5938C279.385 79.026 279.177 80.4479 278.745 81.7917C277.75 84.8958 275.573 87.6094 272.443 89.1927C269.318 90.776 265.833 90.9271 262.75 89.8958C261.531 86.4635 262.521 82.6563 265.141 80.2344C265.969 80.8021 267.078 80.9271 268.016 80.4531C268.953 79.9792 269.516 79.0052 269.547 78.0052C269.562 77.5521 269.469 77.099 269.255 76.6771L268.365 74.9219L263.875 66.0521L262.391 63.1146L259.26 56.9427L268.005 52.5156Z" fill="rgb(250, 204, 21)"/>
<path d="M210 7.01564L232.521 18.4167C237.839 21.1094 241.599 25.6823 243.411 30.9167L238.641 28.5C235.255 26.7865 231.542 26.4063 228.099 27.1615C228.094 27.1563 228.094 27.1563 228.094 27.1563L205.573 15.7552C199.516 12.6875 192.094 15.1198 189.031 21.1771C185.964 27.2344 188.396 34.6563 194.453 37.7188L216.969 49.125C216.974 49.125 216.974 49.125 216.974 49.125C218.437 49.8646 219.979 50.2813 221.516 50.4063C225.448 50.724 229.37 49.1302 231.953 46.0573V46.0625C232.458 45.4636 232.906 44.8073 233.297 44.1042L242.042 48.5313C241.672 49.2344 241.26 49.9063 240.823 50.5521C238.781 53.5625 236.089 55.9375 233.026 57.5886C231.76 58.2656 230.437 58.8229 229.068 59.2448C223.776 60.8854 217.865 60.5573 212.542 57.8646L190.026 46.4636C179.151 40.9584 174.781 27.625 180.286 16.75C185.797 5.87502 199.125 1.50522 210 7.01564Z" fill="rgb(250, 204, 21)"/>
<path d="M234.49 41.0469L232.734 40.1562C232.312 39.9427 231.859 39.8542 231.406 39.8646C230.406 39.8958 229.432 40.4583 228.958 41.3958C228.484 42.3333 228.609 43.4479 229.177 44.2708C226.755 46.8906 222.948 47.8802 219.516 46.6615C218.484 43.5781 218.635 40.0937 220.219 36.9687C221.802 33.8385 224.516 31.6615 227.62 30.6667C228.964 30.2344 230.385 30.026 231.818 30.0625C233.625 30.1094 235.448 30.5469 237.161 31.4167L244.417 35.0885L247.859 36.8333L256.896 41.4062L252.474 50.151L246.297 47.026L243.359 45.5365L234.49 41.0469Z" fill="rgb(250, 204, 21)"/>
<path d="M257.375 65.6511C254.396 67.599 251.948 70.099 250.083 72.9427L236.469 59.3281C239.313 57.4688 241.813 55.0156 243.76 52.0365L257.375 65.6511Z" fill="rgb(250, 204, 21)"/>
<path d="M23.5644 108.65V121.4C23.5644 123.848 22.9081 125.692 21.606 126.942C20.2987 128.181 18.3821 128.796 15.856 128.796C13.3248 128.796 11.4029 128.181 10.0852 126.942C8.7779 125.692 8.12686 123.848 8.12686 121.4V108.65H12.6269V120.088C12.6269 121.687 12.8769 122.796 13.3769 123.421C13.8873 124.046 14.7102 124.359 15.8352 124.359C16.9706 124.359 17.7935 124.046 18.2935 123.421C18.8039 122.796 19.0644 121.687 19.0644 120.088V108.65H23.5644Z" fill="rgb(250, 204, 21)"/>
<path d="M30.7328 116.15V128.442H26.212V108.65H30.7328L38.6078 120.921H38.6495V108.65H43.1495V128.442H38.6495L30.7745 116.15H30.7328Z" fill="rgb(250, 204, 21)"/>
<path d="M56.5776 124.359C57.2547 124.359 57.9213 124.254 58.5776 124.046C59.2286 123.838 59.7078 123.64 60.0151 123.442L60.4526 123.129L62.3901 126.984C62.3172 127.025 62.2286 127.088 62.1192 127.171C62.0047 127.254 61.7442 127.411 61.3276 127.629C60.9213 127.838 60.4838 128.025 60.0151 128.192C59.5567 128.348 58.9526 128.484 58.2026 128.609C57.4526 128.734 56.6713 128.796 55.8692 128.796C54.0359 128.796 52.2911 128.348 50.6401 127.442C48.9995 126.541 47.6713 125.296 46.6609 123.713C45.6453 122.129 45.1401 120.421 45.1401 118.588C45.1401 117.187 45.437 115.848 46.0359 114.567C46.6297 113.291 47.4161 112.202 48.3901 111.296C49.3745 110.379 50.5203 109.65 51.8276 109.109C53.1453 108.556 54.4942 108.275 55.8692 108.275C57.1609 108.275 58.338 108.431 59.4109 108.734C60.4942 109.041 61.2547 109.348 61.7026 109.65L62.3901 110.109L60.4526 113.942C60.338 113.848 60.1713 113.734 59.9526 113.609C59.7286 113.473 59.2755 113.291 58.5984 113.067C57.9317 112.832 57.2547 112.713 56.5776 112.713C55.4942 112.713 54.5151 112.895 53.6401 113.254C52.7755 113.603 52.0984 114.067 51.5984 114.65C51.0984 115.223 50.713 115.838 50.4526 116.504C50.187 117.171 50.0567 117.848 50.0567 118.525C50.0567 120.041 50.6192 121.395 51.7442 122.588C52.8692 123.77 54.4786 124.359 56.5776 124.359Z" fill="rgb(250, 204, 21)"/>
<path d="M68.6287 120.504V128.442H64.1079V108.65H68.6287V116.546H75.0037V108.65H79.5245V128.442H75.0037V120.504H68.6287Z" fill="rgb(250, 204, 21)"/>
<path d="M92.4583 108.65L100.437 128.442H95.6041L94.125 124.484H86.6041L85.125 128.442H80.2916L88.2708 108.65H92.4583ZM92.6041 120.525L90.3958 114.754H90.3333L88.125 120.525H92.6041Z" fill="rgb(250, 204, 21)"/>
<path d="M105.733 108.65V128.442H101.212V108.65H105.733Z" fill="rgb(250, 204, 21)"/>
<path d="M113.125 116.15V128.442H108.604V108.65H113.125L121 120.921H121.041V108.65H125.541V128.442H121.041L113.166 116.15H113.125Z" fill="rgb(250, 204, 21)"/>
<path d="M139.761 108.65V112.609H132.949V116.546H139.469V120.504H132.949V124.484H139.761V128.442H128.428V108.65H139.761Z" fill="rgb(250, 204, 21)"/>
<path d="M142.348 108.65H148.077C150.837 108.65 153.191 109.588 155.139 111.463C157.098 113.338 158.077 115.692 158.077 118.525C158.077 121.374 157.103 123.744 155.16 125.629C153.212 127.504 150.853 128.442 148.077 128.442H142.348V108.65ZM146.868 124.4H147.556C149.207 124.4 150.556 123.848 151.598 122.734C152.65 121.624 153.186 120.228 153.202 118.546C153.202 116.869 152.671 115.473 151.618 114.359C150.577 113.234 149.223 112.671 147.556 112.671H146.868V124.4Z" fill="rgb(250, 204, 21)"/>
</svg>
