<svg fill="none" height="138" viewBox="0 0 311 138" width="311" xmlns="http://www.w3.org/2000/svg" xmlns:xlink="http://www.w3.org/1999/xlink"><mask id="a" height="67" maskUnits="userSpaceOnUse" width="56" x="249" y="65"><path d="m249.156 65.974h55.625v65.531h-55.625z" fill="#fff"/></mask><path d="m7.85492 6.27525h27.10418c12.9844 0 24.0885 4.43755 33.3125 13.31255 9.2187 8.875 13.8333 20 13.8333 33.375 0 13.4583-4.5937 24.625-13.7708 33.5-9.1823 8.875-20.3073 13.3125-33.375 13.3125h-27.10418zm21.31248 74.45835h3.2917c7.776 0 14.1354-2.625 19.0833-7.875 4.9584-5.25 7.4688-11.8386 7.5417-19.7708 0-7.9271-2.474-14.5417-7.4167-19.8334-4.9479-5.2916-11.3489-7.9375-19.2083-7.9375h-3.2917z" fill="#000"/><path d="m112.349 33.2544-16.7713-8.1666c.151-.5261.375-1.2605.6666-2.2084.3021-.9427 1.2136-2.5833 2.7292-4.9166 1.5105-2.3438 3.2915-4.4219 5.3335-6.2292 2.042-1.81772 5.026-3.46355 8.958-4.93751 3.927-1.48437 8.344-2.22916 13.25-2.22916 8.917 0 16.261 2.55729 22.042 7.66667 5.776 5.099 8.667 11.6146 8.667 19.5417 0 7.4062-2.761 13.2604-8.271 17.5625 7.942 4.8333 11.916 11.9739 11.916 21.4166 0 8.9167-3.27 16.2709-9.812 22.0625-6.542 5.7813-14.833 8.6671-24.875 8.6671-5.365 0-10.24-.792-14.625-2.3754-4.375-1.5938-7.792-3.5052-10.25-5.7292-2.4585-2.2343-4.5002-4.4843-6.1252-6.75-1.625-2.2604-2.7395-4.1875-3.3333-5.7708l-.8125-2.3958 19.729-9.625c0 .375.052.8906.167 1.5416.109.6407.505 1.7917 1.187 3.4584.677 1.6562 1.511 3.1041 2.5 4.3541.985 1.2396 2.48 2.3698 4.48 3.3959 2 1.0156 4.317 1.5208 6.958 1.5208 4.01 0 7.26-1.0885 9.75-3.2708 2.5-2.1927 3.75-5.2188 3.75-9.0834 0-4-1.307-7.2812-3.917-9.8541-2.614-2.5677-5.807-3.8542-9.583-3.8542l-4.063.6875v-13.9375h4.646c2.943 0 5.547-1.1302 7.813-3.3958 2.26-2.2761 3.396-5.073 3.396-8.3959 0-2.9427-1.157-5.3958-3.459-7.3541-2.307-1.9688-5.01-2.9584-8.104-2.9584-2.182 0-4.161.3959-5.937 1.1875-1.782.7917-3.141 1.7604-4.084 2.8959-.948 1.125-1.745 2.2604-2.396 3.3958-.64 1.125-1.031 2.0729-1.166 2.8333z" fill="#000"/><g mask="url(#a)"><path d="m258.865 68.5885c.645-.4322 1.312-.8489 2.015-1.2187l4.427 8.7448c-.703.3906-1.359.8385-1.958 1.3437h.005c-3.073 2.5834-4.667 6.5052-4.349 10.4375.125 1.5365.542 3.0782 1.281 4.5417 0 0 0 0 .006.0052l11.401 22.5153c3.062 6.058 10.484 8.49 16.541 5.422 6.058-3.062 8.49-10.484 5.422-16.541l-11.401-22.5213s0 0-.005-.0052c.755-3.4427.375-7.1562-1.339-10.5365l-2.416-4.776c5.234 1.8125 9.807 5.5729 12.5 10.8958l11.401 22.5157c5.51 10.8745 1.14 24.2085-9.735 29.7135s-24.203 1.135-29.713-9.74l-11.401-22.5152c-2.693-5.3229-3.021-11.2344-1.38-16.526.427-1.3646.979-2.6928 1.661-3.9584 1.646-3.0625 4.021-5.7552 7.031-7.7969z" fill="#231f20"/></g><g fill="#231f20"><path d="m268.005 52.5156 4.573 9.0365 1.745 3.4427 3.672 7.2552c.87 1.7135 1.307 3.5365 1.354 5.3438.036 1.4322-.172 2.8541-.604 4.1979-.995 3.1041-3.172 5.8177-6.302 7.401-3.125 1.5833-6.61 1.7344-9.693.7031-1.219-3.4323-.229-7.2395 2.391-9.6614.828.5677 1.937.6927 2.875.2187.937-.4739 1.5-1.4479 1.531-2.4479.015-.4531-.078-.9062-.292-1.3281l-.89-1.7552-4.49-8.8698-1.484-2.9375-3.131-6.1719z"/><path d="m210 7.01564 22.521 11.40106c5.318 2.6927 9.078 7.2656 10.89 12.5l-4.77-2.4167c-3.386-1.7135-7.099-2.0937-10.542-1.3385-.005-.0052-.005-.0052-.005-.0052l-22.521-11.4011c-6.057-3.0677-13.479-.6354-16.542 5.4219-3.067 6.0573-.635 13.4792 5.422 16.5417l22.516 11.4062h.005c1.463.7396 3.005 1.1563 4.542 1.2813 3.932.3177 7.854-1.2761 10.437-4.349v.0052c.505-.5989.953-1.2552 1.344-1.9583l8.745 4.4271c-.37.7031-.782 1.375-1.219 2.0208-2.042 3.0104-4.734 5.3854-7.797 7.0365-1.266.677-2.589 1.2343-3.958 1.6562-5.292 1.6406-11.203 1.3125-16.526-1.3802l-22.516-11.401c-10.875-5.5052-15.245-18.8386-9.74-29.7136 5.511-10.87498 18.839-15.24478 29.714-9.73436z"/><path d="m234.49 41.0469-1.756-.8907c-.422-.2135-.875-.302-1.328-.2916-1 .0312-1.974.5937-2.448 1.5312s-.349 2.0521.219 2.875c-2.422 2.6198-6.229 3.6094-9.661 2.3907-1.032-3.0834-.881-6.5678.703-9.6928 1.583-3.1302 4.297-5.3072 7.401-6.302 1.344-.4323 2.765-.6407 4.198-.6042 1.807.0469 3.63.4844 5.343 1.3542l7.256 3.6718 3.442 1.7448 9.037 4.5729-4.422 8.7448-6.177-3.125-2.938-1.4895z"/><path d="m257.375 65.6511c-2.979 1.9479-5.427 4.4479-7.292 7.2916l-13.614-13.6146c2.844-1.8593 5.344-4.3125 7.291-7.2916z"/></g><g fill="#000"><path d="m23.5644 108.65v12.75c0 2.448-.6563 4.292-1.9584 5.542-1.3073 1.239-3.2239 1.854-5.75 1.854-2.5312 0-4.4531-.615-5.7708-1.854-1.3073-1.25-1.95834-3.094-1.95834-5.542v-12.75h4.50004v11.438c0 1.599.25 2.708.75 3.333.5104.625 1.3333.938 2.4583.938 1.1354 0 1.9583-.313 2.4583-.938.5104-.625.7709-1.734.7709-3.333v-11.438z"/><path d="m30.7328 116.15v12.292h-4.5208v-19.792h4.5208l7.875 12.271h.0417v-12.271h4.5v19.792h-4.5l-7.875-12.292z"/><path d="m56.5776 124.359c.6771 0 1.3437-.105 2-.313.651-.208 1.1302-.406 1.4375-.604l.4375-.313 1.9375 3.855c-.0729.041-.1615.104-.2709.187-.1145.083-.375.24-.7916.458-.4063.209-.8438.396-1.3125.563-.4584.156-1.0625.292-1.8125.417s-1.5313.187-2.3334.187c-1.8333 0-3.5781-.448-5.2291-1.354-1.6406-.901-2.9688-2.146-3.9792-3.729-1.0156-1.584-1.5208-3.292-1.5208-5.125 0-1.401.2969-2.74.8958-4.021.5938-1.276 1.3802-2.365 2.3542-3.271.9844-.917 2.1302-1.646 3.4375-2.187 1.3177-.553 2.6666-.834 4.0416-.834 1.2917 0 2.4688.156 3.5417.459 1.0833.307 1.8438.614 2.2917.916l.6875.459-1.9375 3.833c-.1146-.094-.2813-.208-.5-.333-.224-.136-.6771-.318-1.3542-.542-.6667-.235-1.3437-.354-2.0208-.354-1.0834 0-2.0625.182-2.9375.541-.8646.349-1.5417.813-2.0417 1.396-.5.573-.8854 1.188-1.1458 1.854-.2656.667-.3959 1.344-.3959 2.021 0 1.516.5625 2.87 1.6875 4.063 1.125 1.182 2.7344 1.771 4.8334 1.771z"/><path d="m68.6287 120.504v7.938h-4.5208v-19.792h4.5208v7.896h6.375v-7.896h4.5208v19.792h-4.5208v-7.938z"/><path d="m92.4583 108.65 7.9787 19.792h-4.8329l-1.4791-3.958h-7.5209l-1.4791 3.958h-4.8334l7.9792-19.792zm.1458 11.875-2.2083-5.771h-.0625l-2.2083 5.771z"/><path d="m105.733 108.65v19.792h-4.521v-19.792z"/><path d="m113.125 116.15v12.292h-4.521v-19.792h4.521l7.875 12.271h.041v-12.271h4.5v19.792h-4.5l-7.875-12.292z"/><path d="m139.761 108.65v3.959h-6.812v3.937h6.52v3.958h-6.52v3.98h6.812v3.958h-11.333v-19.792z"/><path d="m142.348 108.65h5.729c2.76 0 5.114.938 7.062 2.813 1.959 1.875 2.938 4.229 2.938 7.062 0 2.849-.974 5.219-2.917 7.104-1.948 1.875-4.307 2.813-7.083 2.813h-5.729zm4.52 15.75h.688c1.651 0 3-.552 4.042-1.666 1.052-1.11 1.588-2.506 1.604-4.188 0-1.677-.531-3.073-1.584-4.187-1.041-1.125-2.395-1.688-4.062-1.688h-.688z"/></g></svg>